<svg width="21" height="21" viewBox="0 0 21 21" fill="none" xmlns="http://www.w3.org/2000/svg">
<path fill-rule="evenodd" clip-rule="evenodd" d="M10.5 1.75C7.11375 1.75 4.375 4.48875 4.375 7.875C4.375 12.4688 10.5 19.25 10.5 19.25C10.5 19.25 16.625 12.4688 16.625 7.875C16.625 4.48875 13.8862 1.75 10.5 1.75ZM6.12484 7.875C6.12484 5.46 8.08484 3.5 10.4998 3.5C12.9148 3.5 14.8748 5.46 14.8748 7.875C14.8748 10.395 12.3548 14.1663 10.4998 16.52C8.67984 14.1838 6.12484 10.3688 6.12484 7.875ZM8.3125 7.875C8.3125 6.66688 9.29188 5.6875 10.5 5.6875C11.2815 5.6875 12.0037 6.10443 12.3944 6.78125C12.7852 7.45806 12.7852 8.29193 12.3944 8.96875C12.0037 9.64556 11.2815 10.0625 10.5 10.0625C9.29188 10.0625 8.3125 9.08312 8.3125 7.875Z" fill="#FEF5FF"/>
</svg>
