<svg width="153" height="35" viewBox="0 0 153 35" fill="none" xmlns="http://www.w3.org/2000/svg">
<path d="M26.008 14.7971C24.424 18.3971 22.156 21.3131 19.204 23.5451C16.276 25.7531 12.94 26.8571 9.196 26.8571C3.244 26.8571 0.268 24.2291 0.268 18.9731C0.268 16.5971 0.76 14.2691 1.744 11.9891C2.752 9.68508 4.072 7.68108 5.704 5.97708C7.336 4.24908 9.268 2.85708 11.5 1.80108C13.732 0.745078 16.012 0.217078 18.34 0.217078C21.388 0.217078 23.668 0.973078 25.18 2.48508C26.716 3.97308 27.484 5.84508 27.484 8.10108C27.484 10.3331 26.992 12.5651 26.008 14.7971ZM24.496 7.74108C24.496 3.82908 22.744 1.87308 19.24 1.87308C16.696 1.87308 14.26 2.74908 11.932 4.50108C9.628 6.25308 7.804 8.44908 6.46 11.0891C5.14 13.7291 4.48 16.3691 4.48 19.0091C4.48 20.9051 4.9 22.4411 5.74 23.6171C6.58 24.7931 7.912 25.3811 9.736 25.3811C11.584 25.3811 13.432 24.8291 15.28 23.7251C17.128 22.6211 18.712 21.2171 20.032 19.5131C21.352 17.7851 22.42 15.8771 23.236 13.7891C24.076 11.6771 24.496 9.66108 24.496 7.74108ZM33.449 23.9411C33.185 23.9891 32.789 24.2651 32.261 24.7691C31.757 25.2731 31.421 25.6811 31.253 25.9931C30.077 25.6091 29.489 25.1171 29.489 24.5171C29.489 24.0851 29.741 23.6651 30.245 23.2571C30.773 22.8491 31.373 22.6451 32.045 22.6451C33.029 22.6451 33.521 22.9451 33.521 23.5451C33.521 23.6171 33.497 23.7491 33.449 23.9411ZM66.5865 0.973077C65.0505 0.973077 62.5185 2.07708 58.9905 4.28508C55.4865 6.49308 52.3425 8.85708 49.5585 11.3771C50.3505 14.0171 51.7785 16.8011 53.8425 19.7291C55.9065 22.6571 57.7065 24.6251 59.2425 25.6331C58.8825 25.7051 58.3065 25.7411 57.5145 25.7411L54.4545 25.6331C53.7825 25.6331 52.8825 24.8651 51.7545 23.3291C50.6265 21.7691 49.6185 20.0411 48.7305 18.1451C47.8665 16.2491 47.3385 14.7491 47.1465 13.6451C45.7785 15.0131 44.6265 16.3691 43.6905 17.7131C43.3065 18.2651 42.8505 19.3691 42.3225 21.0251C41.8185 22.6571 41.5665 23.8091 41.5665 24.4811C41.5665 25.1291 41.6145 25.5371 41.7105 25.7051H37.0665C37.8345 22.7531 39.1785 18.7451 41.0985 13.6811C43.0425 8.59308 44.7825 4.95708 46.3185 2.77308C46.3185 2.74908 46.5225 2.46108 46.9305 1.90908C44.8905 1.95708 42.8145 2.37708 40.7025 3.16908C38.6145 3.93708 37.4025 4.86108 37.0665 5.94108C37.0425 6.01308 36.9945 6.04908 36.9225 6.04908C36.7305 6.04908 36.6345 5.89308 36.6345 5.58108C36.6345 5.53308 36.7305 5.20908 36.9225 4.60908C37.1145 4.00908 37.4745 3.38508 38.0025 2.73708C38.5545 2.08908 39.1905 1.60908 39.9105 1.29708C41.0865 0.817077 42.5505 0.577078 44.3025 0.577078H52.4385C51.2385 1.48908 49.8225 3.50508 48.1905 6.62508C46.5585 9.74508 45.2265 12.6011 44.1945 15.1931C45.1785 13.8011 46.4865 12.2651 48.1185 10.5851C49.7745 8.88108 51.5385 7.26108 53.4105 5.72508C55.3065 4.16508 57.2505 2.86908 59.2425 1.83708C61.2585 0.805077 63.0105 0.289077 64.4985 0.289077C66.0105 0.289077 66.7665 0.457077 66.7665 0.793077C66.7665 0.913077 66.7065 0.973077 66.5865 0.973077ZM74.2778 11.3051L76.0778 11.3411H76.4378C75.6458 11.9891 74.6738 13.6331 73.5218 16.2731C72.3698 18.8891 71.7938 20.7971 71.7938 21.9971C71.7938 22.6211 72.0098 22.9331 72.4418 22.9331C73.8338 22.9331 75.6098 20.8811 77.7698 16.7771C77.8658 16.6091 77.9498 16.5251 78.0218 16.5251C78.1658 16.5251 78.2378 16.7531 78.2378 17.2091C78.2378 17.6411 78.1178 18.0611 77.8778 18.4691C74.9258 23.4371 72.4538 25.9211 70.4618 25.9211C69.1658 25.9211 68.5178 24.9251 68.5178 22.9331C68.5178 21.4451 68.7698 19.9811 69.2738 18.5411C66.5378 23.3891 64.0058 25.8131 61.6778 25.8131C60.0698 25.8131 59.2658 24.7091 59.2658 22.5011C59.2658 20.8211 59.6258 19.1171 60.3458 17.3891C61.0898 15.6611 62.1458 14.1971 63.5138 12.9971C64.8818 11.7731 66.3818 11.1611 68.0138 11.1611C68.7818 11.1611 69.5018 11.3411 70.1738 11.7011C70.8458 12.0371 71.2898 12.5891 71.5058 13.3571C71.7698 12.8051 72.1778 12.3251 72.7298 11.9171C73.2818 11.5091 73.7978 11.3051 74.2778 11.3051ZM71.2898 13.6811C71.0498 12.9131 70.4858 12.5291 69.5978 12.5291C68.0138 12.5291 66.4778 13.6331 64.9898 15.8411C63.5018 18.0251 62.7578 19.9811 62.7578 21.7091C62.7578 22.4531 63.0458 22.8251 63.6218 22.8251C64.2458 22.8251 64.9778 22.4411 65.8178 21.6731C66.6578 20.8811 67.4138 19.9571 68.0858 18.9011C69.5738 16.5491 70.6418 14.8091 71.2898 13.6811ZM86.2174 11.2331L88.0534 11.2691H88.4134C88.0534 11.5331 87.5374 12.3131 86.8654 13.6091C86.2174 14.9051 85.7254 15.8891 85.3894 16.5611C85.0774 17.2091 84.7174 18.0971 84.3094 19.2251C83.9254 20.3291 83.7334 21.2291 83.7334 21.9251C83.7334 22.6211 83.9734 22.9691 84.4534 22.9691C84.7654 22.9451 85.1974 22.7291 85.7494 22.3211C86.3254 21.8891 86.7934 21.4451 87.1534 20.9891C87.5374 20.5091 87.9454 19.9091 88.3774 19.1891C88.8334 18.4451 89.2174 17.8091 89.5294 17.2811C89.8654 16.7291 90.0574 16.4531 90.1054 16.4531C90.2734 16.4531 90.3574 16.6811 90.3574 17.1371C90.3574 17.5691 90.2374 17.9891 89.9974 18.3971C88.9654 20.1011 88.1134 21.4091 87.4414 22.3211C86.7694 23.2331 85.9534 24.0731 84.9934 24.8411C84.0574 25.5851 83.2054 25.9571 82.4374 25.9571C81.0694 25.9571 80.3854 24.9491 80.3854 22.9331C80.3854 21.5651 80.6494 20.0171 81.1774 18.2891C81.7054 16.5611 82.4854 14.8931 83.5174 13.2851C82.6774 13.9571 81.8374 14.2931 80.9974 14.2931C80.7334 14.2931 80.4574 14.2331 80.1694 14.1131C78.4654 17.4731 77.5414 19.1531 77.3974 19.1531C77.2774 19.1531 77.2174 18.9611 77.2174 18.5771C77.2174 18.1691 77.3614 17.6171 77.6494 16.9211C77.9614 16.2011 78.2854 15.5171 78.6214 14.8691C78.9814 14.2211 79.1734 13.8611 79.1974 13.7891C78.3334 13.3571 77.9014 12.6611 77.9014 11.7011C77.9014 11.2211 78.0454 10.7891 78.3334 10.4051C78.6454 10.0211 79.0654 9.82908 79.5934 9.82908C80.1214 9.82908 80.5534 9.99708 80.8894 10.3331C80.8414 10.4771 80.8174 10.6931 80.8174 10.9811C80.8174 11.6291 81.0454 12.1451 81.5014 12.5291C81.9814 12.8891 82.5574 13.0691 83.2294 13.0691C83.4214 13.0691 83.5654 13.0571 83.6614 13.0331C84.5014 11.8331 85.3534 11.2331 86.2174 11.2331ZM104.395 18.0011C102.955 20.6411 101.395 22.6931 99.7152 24.1571C98.0352 25.6211 96.0432 26.3531 93.7392 26.3531C91.4352 26.3531 90.1392 25.7651 89.8512 24.5891L87.8352 30.8891C87.3552 32.3051 86.9952 33.2171 86.7552 33.6251C86.4912 34.0571 86.2032 34.3331 85.8912 34.4531C85.5792 34.5731 85.1832 34.6331 84.7032 34.6331H82.9752C83.5992 33.7211 84.8592 30.5771 86.7552 25.2011C88.6512 19.8011 89.8992 16.3571 90.4992 14.8691C91.1232 13.3811 91.5792 12.4811 91.8672 12.1691C92.4432 11.5931 93.4392 11.3051 94.8552 11.3051H95.9352C95.2392 11.7851 94.2912 13.2251 93.0912 15.6251C95.3232 12.6491 97.2912 11.1611 98.9952 11.1611C100.603 11.1611 101.407 12.2651 101.407 14.4731C101.407 16.2971 100.831 18.1691 99.6792 20.0891C98.5272 22.0091 97.1712 23.4971 95.6112 24.5531H95.8992C96.8832 24.5531 97.8792 24.1571 98.8872 23.3651C99.9192 22.5731 100.807 21.6971 101.551 20.7371C101.959 20.2091 102.535 19.3211 103.279 18.0731C104.023 16.8011 104.419 16.1651 104.467 16.1651C104.659 16.1651 104.755 16.3691 104.755 16.7771C104.755 17.1851 104.635 17.5931 104.395 18.0011ZM97.3752 14.2211C97.3032 14.1971 97.1952 14.1851 97.0512 14.1851C96.5472 14.1851 95.9952 14.4251 95.3952 14.9051C94.4112 15.6731 93.3672 16.9451 92.2632 18.7211C91.1592 20.4971 90.6072 21.9491 90.6072 23.0771C90.6072 24.2051 90.9552 24.7691 91.6512 24.7691C92.8992 24.7691 94.2552 23.5331 95.7192 21.0611C97.1832 18.5891 97.9152 16.6571 97.9152 15.2651C97.9152 14.6651 97.7352 14.3171 97.3752 14.2211ZM120.147 16.8491C120.219 16.7051 120.291 16.6331 120.363 16.6331C120.507 16.6331 120.579 16.8131 120.579 17.1731C120.579 18.3251 120.111 19.2851 119.175 20.0531C118.263 20.7971 117.399 21.1691 116.583 21.1691C115.791 21.1691 115.107 20.9411 114.531 20.4851C113.667 22.1891 112.635 23.5331 111.435 24.5171C110.259 25.5011 108.735 25.9931 106.863 25.9931C105.663 25.9931 104.679 25.6331 103.911 24.9131C103.167 24.1691 102.795 23.0531 102.795 21.5651C102.795 20.0531 103.131 18.5051 103.803 16.9211C104.499 15.3131 105.531 13.9331 106.899 12.7811C108.291 11.6291 109.839 11.0531 111.543 11.0531C114.399 11.0531 115.827 12.5651 115.827 15.5891C115.827 16.7411 115.575 17.9531 115.071 19.2251C115.431 19.7291 115.947 19.9811 116.619 19.9811C117.867 19.9811 119.043 18.9371 120.147 16.8491ZM114.135 14.6171C114.039 13.3451 113.463 12.7091 112.407 12.7091C110.751 12.7091 109.131 14.3171 107.547 17.5331C106.683 19.3091 106.251 20.9171 106.251 22.3571C106.251 23.7971 106.875 24.5531 108.123 24.6251C109.155 24.6251 110.103 24.0851 110.967 23.0051C111.855 21.9011 112.599 20.6891 113.199 19.3691C112.383 18.6731 111.975 17.7971 111.975 16.7411C111.975 16.0931 112.143 15.5771 112.479 15.1931C112.839 14.8091 113.319 14.6171 113.919 14.6171H114.135ZM134.771 18.5771C133.787 20.3291 132.551 21.2051 131.063 21.2051C129.815 21.2051 128.939 20.5331 128.435 19.1891C126.347 22.3331 124.883 24.1931 124.043 24.7691C122.867 25.5611 121.715 25.9571 120.587 25.9571C120.011 25.9571 119.531 25.6811 119.147 25.1291C118.787 24.5531 118.607 23.7851 118.607 22.8251C118.607 21.8411 118.907 20.3771 119.507 18.4331C120.683 14.6171 122.039 12.3851 123.575 11.7371C124.319 11.4251 125.327 11.2691 126.599 11.2691C126.695 11.2691 126.743 11.3171 126.743 11.4131C126.743 11.5091 126.671 11.6291 126.527 11.7731C125.615 12.5411 124.619 14.1851 123.539 16.7051C122.483 19.2011 121.955 20.9771 121.955 22.0331C121.955 23.0651 122.351 23.5811 123.143 23.5811C123.815 23.5811 124.595 22.9211 125.483 21.6011C126.371 20.2571 127.115 18.7811 127.715 17.1731C127.595 16.6211 127.535 15.9251 127.535 15.0851C127.535 14.2211 127.739 13.3691 128.147 12.5291C128.579 11.6651 129.167 11.2331 129.911 11.2331C130.655 11.2331 131.027 11.7851 131.027 12.8891C131.027 14.1851 130.631 15.5051 129.839 16.8491C129.623 17.2331 129.479 17.4971 129.407 17.6411C129.431 18.3851 129.611 18.9611 129.947 19.3691C130.307 19.7771 130.763 19.9811 131.315 19.9811C132.179 19.9811 132.983 19.4411 133.727 18.3611C134.015 17.9291 134.267 17.5451 134.483 17.2091C134.723 16.8491 134.855 16.6691 134.879 16.6691C134.975 16.6691 135.023 16.9211 135.023 17.4251C135.023 17.9291 134.939 18.3131 134.771 18.5771ZM148.282 11.3051L150.082 11.3411H150.442C149.65 11.9891 148.678 13.6331 147.526 16.2731C146.374 18.8891 145.798 20.7971 145.798 21.9971C145.798 22.6211 146.014 22.9331 146.446 22.9331C147.838 22.9331 149.614 20.8811 151.774 16.7771C151.87 16.6091 151.954 16.5251 152.026 16.5251C152.17 16.5251 152.242 16.7531 152.242 17.2091C152.242 17.6411 152.122 18.0611 151.882 18.4691C148.93 23.4371 146.458 25.9211 144.466 25.9211C143.17 25.9211 142.522 24.9251 142.522 22.9331C142.522 21.4451 142.774 19.9811 143.278 18.5411C140.542 23.3891 138.01 25.8131 135.682 25.8131C134.074 25.8131 133.27 24.7091 133.27 22.5011C133.27 20.8211 133.63 19.1171 134.35 17.3891C135.094 15.6611 136.15 14.1971 137.518 12.9971C138.886 11.7731 140.386 11.1611 142.018 11.1611C142.786 11.1611 143.506 11.3411 144.178 11.7011C144.85 12.0371 145.294 12.5891 145.51 13.3571C145.774 12.8051 146.182 12.3251 146.734 11.9171C147.286 11.5091 147.802 11.3051 148.282 11.3051ZM145.294 13.6811C145.054 12.9131 144.49 12.5291 143.602 12.5291C142.018 12.5291 140.482 13.6331 138.994 15.8411C137.506 18.0251 136.762 19.9811 136.762 21.7091C136.762 22.4531 137.05 22.8251 137.626 22.8251C138.25 22.8251 138.982 22.4411 139.822 21.6731C140.662 20.8811 141.418 19.9571 142.09 18.9011C143.578 16.5491 144.646 14.8091 145.294 13.6811Z" fill="#87368D"/>
</svg>
